<?xml version="1.0" encoding="utf-8"?>
<!-- Generator: Adobe Illustrator 24.0.3, SVG Export Plug-In . SVG Version: 6.00 Build 0)  -->
<svg version="1.1" id="Layer_1" xmlns="http://www.w3.org/2000/svg" xmlns:xlink="http://www.w3.org/1999/xlink" x="0px" y="0px"
	 viewBox="0 0 66 66" style="enable-background:new 0 0 66 66;" xml:space="preserve">
<g>
	<g>
		<g>
			<path d="M15.04,51.22c-2.94,0-5.32,2.39-5.32,5.32c0,2.94,2.39,5.32,5.32,5.32s5.32-2.39,5.32-5.32
				C20.37,53.6,17.98,51.22,15.04,51.22z M15.04,59.73c-1.76,0-3.19-1.43-3.19-3.19s1.43-3.19,3.19-3.19s3.19,1.43,3.19,3.19
				S16.8,59.73,15.04,59.73z"/>
			<path d="M53.38,51.22c-2.94,0-5.32,2.39-5.32,5.32c0,2.94,2.39,5.32,5.32,5.32s5.32-2.39,5.32-5.32
				C58.7,53.6,56.31,51.22,53.38,51.22z M53.38,59.73c-1.76,0-3.19-1.43-3.19-3.19s1.43-3.19,3.19-3.19s3.19,1.43,3.19,3.19
				S55.14,59.73,53.38,59.73z"/>
			<path d="M33.14,32.05c4.11,0,7.45-3.34,7.45-7.45s-3.34-7.45-7.45-7.45s-7.45,3.34-7.45,7.45S29.04,32.05,33.14,32.05z
				 M33.14,19.27c2.94,0,5.32,2.39,5.32,5.32s-2.39,5.32-5.32,5.32s-5.32-2.39-5.32-5.32S30.21,19.27,33.14,19.27z"/>
			<path d="M66.16,3.3h-2.13L49.55,6.37C45.22,2.47,39.47,0.1,33.14,0.1c-5.62,0-10.79,1.91-14.93,5.1L16.2,3.85
				c-0.55-0.36-1.18-0.56-1.84-0.56h-0.52c-0.83,0-1.6,0.31-2.21,0.87L2.49,0.1H0.13v5.95l7.54,4.17c0.18,0.84,0.66,1.59,1.39,2.08
				l2.14,1.43c-1.63,3.28-2.55,6.96-2.55,10.86v1.06h2.18c0.11,2.23,0.54,4.37,1.25,6.39H0.13v8.52h6.39v6.39H0.13v8.52h5.39
				c-0.04,0.35-0.06,0.7-0.06,1.06c0,5.29,4.3,9.58,9.58,9.58s9.58-4.3,9.58-9.58c0-0.36-0.02-0.71-0.06-1.06h19.29
				c-0.04,0.35-0.06,0.7-0.06,1.06c0,5.29,4.3,9.58,9.58,9.58s9.58-4.3,9.58-9.58c0-0.36-0.02-0.71-0.06-1.06h3.26v-7.45v-1.06v-4.9
				l-13.21-7.11c0.83-1.58,1.46-3.27,1.89-5.04c0.75,0.66,1.72,1.07,2.8,1.07c1.98,0,3.63-1.36,4.11-3.19h2.28
				c1.17,0,2.13-0.96,2.13-2.13v-6.39c0-1.17-0.96-2.13-2.13-2.13h-0.5l-2.94-4.4l5.56-1.11V3.3z M8.56,7.21
				C8.33,7.44,8.15,7.7,8,7.97L2.26,4.8V2.33L10,5.77L8.56,7.21z M10.24,10.53c-0.33-0.22-0.52-0.58-0.52-0.98
				c0-0.32,0.12-0.61,0.35-0.83l2.95-2.94c0.22-0.22,0.52-0.35,0.83-0.35h0.52c0.23,0,0.46,0.07,0.65,0.2l1.51,1
				c-1.66,1.53-3.11,3.29-4.29,5.23L10.24,10.53z M2.26,38.44v-4.26h10.71c0.73,1.52,1.61,2.95,2.65,4.26H2.26z M2.26,53.35v-4.26
				h6.77c-1.37,1.1-2.42,2.57-3.01,4.26H2.26z M15.04,63.99c-4.11,0-7.45-3.34-7.45-7.45s3.34-7.45,7.45-7.45s7.45,3.34,7.45,7.45
				S19.15,63.99,15.04,63.99z M24.07,53.35c-0.6-1.69-1.65-3.16-3.01-4.26h26.31c-1.37,1.1-2.42,2.57-3.01,4.26H24.07z M53.38,63.99
				c-4.11,0-7.45-3.34-7.45-7.45s3.34-7.45,7.45-7.45s7.45,3.34,7.45,7.45S57.49,63.99,53.38,63.99z M64.03,53.35H62.4
				c-0.6-1.69-1.65-3.16-3.01-4.26h4.64V53.35z M64.03,43.33v3.62H33.14H8.65v-6.39h8.87c4.03,3.95,9.54,6.39,15.62,6.39
				c7.83,0,14.73-4.06,18.72-10.17L64.03,43.33z M33.14,44.83c-10.8,0-19.62-8.51-20.18-19.17h6.39
				c0.55,7.14,6.52,12.78,13.79,12.78s13.24-5.64,13.79-12.78h6.39C52.76,36.32,43.94,44.83,33.14,44.83z M21.43,24.59
				c0-6.46,5.26-11.71,11.71-11.71s11.71,5.26,11.71,11.71S39.6,36.31,33.14,36.31S21.43,31.05,21.43,24.59z M54.85,23.53h-7.92
				c-0.55-7.14-6.52-12.78-13.79-12.78S19.9,16.39,19.36,23.53h-8.55c0.56-11.84,10.36-21.3,22.34-21.3
				c11.86,0,21.51,9.12,22.29,20.87C55.22,23.23,55.03,23.37,54.85,23.53z M57.64,28.85c-1.17,0-2.13-0.96-2.13-2.13
				c0-1.17,0.96-2.13,2.13-2.13s2.13,0.96,2.13,2.13C59.77,27.9,58.81,28.85,57.64,28.85z M64.03,19.27v6.39h-2.28
				c-0.48-1.83-2.13-3.19-4.11-3.19c-0.03,0-0.06,0.01-0.1,0.01c-0.09-1.09-0.26-2.16-0.49-3.2H64.03z M60.97,17.14h-4.49
				c-0.36-1.15-0.8-2.25-1.32-3.32l3.18-0.64L60.97,17.14z M64.03,9.88l-9.93,1.99c-0.8-1.32-1.72-2.56-2.75-3.7l12.68-2.72V9.88z"
				/>
			<path d="M17.45,27.59l-2.09,0.4c0.14,0.75,0.33,1.49,0.57,2.22l2.03-0.66C17.75,28.91,17.58,28.25,17.45,27.59z"/>
			<path d="M18.7,31.43l-1.92,0.91c2.98,6.29,9.41,10.36,16.37,10.36v-2.13C27,40.57,21.34,36.98,18.7,31.43z"/>
		</g>
	</g>
</g>
</svg>
