<?xml version="1.0" encoding="utf-8"?>
<!-- Generator: Adobe Illustrator 24.0.3, SVG Export Plug-In . SVG Version: 6.00 Build 0)  -->
<svg version="1.1" id="Layer_1" xmlns="http://www.w3.org/2000/svg" xmlns:xlink="http://www.w3.org/1999/xlink" x="0px" y="0px"
	 viewBox="0 0 66 66" style="enable-background:new 0 0 66 66;" xml:space="preserve">
<g>
	<g>
		<g>
			<path d="M33.14,0C17.88,0,5.47,12.42,5.47,27.68c0,12.29,8.06,22.73,19.16,26.33v7.73h2.13V66h2.13v-4.26h8.52V66h2.13v-4.26
				h2.13v-7.73c11.11-3.6,19.16-14.04,19.16-26.33C60.82,12.42,48.41,0,33.14,0z M39.53,59.61H26.76V54.6
				c2.05,0.49,4.19,0.75,6.39,0.75c2.2,0,4.34-0.27,6.39-0.75V59.61z M33.14,53.23C19.06,53.23,7.6,41.76,7.6,27.68
				S19.06,2.13,33.14,2.13s25.55,11.46,25.55,25.55S47.23,53.23,33.14,53.23z"/>
			<rect x="32.08" y="4.26" width="2.13" height="4.26"/>
			<rect x="21.43" y="7.11" transform="matrix(0.866 -0.5 0.5 0.866 -1.6048 12.4876)" width="2.13" height="4.26"/>
			<rect x="13.64" y="14.9" transform="matrix(0.5 -0.866 0.866 0.5 -7.3952 21.2501)" width="2.13" height="4.26"/>
			<rect x="9.73" y="26.61" width="4.26" height="2.13"/>
			<rect x="12.58" y="37.26" transform="matrix(0.866 -0.5 0.5 0.866 -17.1916 12.487)" width="4.26" height="2.13"/>
			<rect x="50.52" y="36.19" transform="matrix(0.5 -0.866 0.866 0.5 -7.3978 63.8319)" width="2.13" height="4.26"/>
			<rect x="52.31" y="26.61" width="4.26" height="2.13"/>
			<rect x="49.45" y="15.97" transform="matrix(0.8661 -0.4999 0.4999 0.8661 -1.6078 28.0676)" width="4.26" height="2.13"/>
			<rect x="41.66" y="8.18" transform="matrix(0.4999 -0.8661 0.8661 0.4999 13.8943 42.5478)" width="4.26" height="2.13"/>
			<path d="M16.37,32.97l13.05-3.26c0.72,1.32,2.11,2.23,3.72,2.23c2.35,0,4.26-1.91,4.26-4.26s-1.91-4.26-4.26-4.26
				c-2.34,0-4.24,1.89-4.25,4.23L15.86,30.9L16.37,32.97z M33.14,25.55c1.17,0,2.13,0.95,2.13,2.13s-0.95,2.13-2.13,2.13
				c-1.17,0-2.13-0.95-2.13-2.13S31.97,25.55,33.14,25.55z"/>
			<path d="M33.14,48.97c-5.76,0-11.16-2.27-15.21-6.4l-1.52,1.49c4.45,4.54,10.39,7.04,16.73,7.04s12.28-2.5,16.73-7.04l-1.52-1.49
				C44.31,46.69,38.91,48.97,33.14,48.97z"/>
		</g>
	</g>
</g>
</svg>
