<?xml version="1.0" encoding="utf-8"?>
<!-- Generator: Adobe Illustrator 24.0.3, SVG Export Plug-In . SVG Version: 6.00 Build 0)  -->
<svg version="1.1" id="Layer_1" xmlns="http://www.w3.org/2000/svg" xmlns:xlink="http://www.w3.org/1999/xlink" x="0px" y="0px"
	 viewBox="0 0 66 66" style="enable-background:new 0 0 66 66;" xml:space="preserve">
<g>
	<path d="M8.51,66C5.67,66,2.84,66,0,66C0,44,0,22,0,0c1.72,0,3.44,0,5.16,0c0.26,1.96,0.52,3.91,0.77,5.87
		c0.11,0.84,0.22,1.68,0.34,2.6c2.75-1.18,5.4-2.31,8.07-3.45c0.56,1.11,1.07,2.17,1.63,3.21c0.19,0.35,0.13,0.58-0.12,0.85
		c-0.44,0.47-0.84,0.97-1.37,1.6c0.97,0,1.73,0,2.56,0c0,0.72,0,1.37,0,2.1c0.96,0,1.85-0.02,2.75,0.01c0.6,0.02,1.21,0.05,1.78,0.2
		c2.47,0.67,3.96,2.65,3.98,5.28c0.02,3.24,0,6.49,0.01,9.73c0,0.23,0,0.47,0,0.68c2.45,0.56,3.21,1.52,3.21,4.02
		c0,4.32,0.01,8.63-0.01,12.95c0,0.4,0.12,0.66,0.43,0.92c2.86,2.43,5.71,4.89,8.57,7.33c0.15,0.13,0.32,0.25,0.58,0.44
		c0-1.75,0-3.38,0-5c0-1.85,0.28-3.64,1.04-5.33c0.43-0.95,0.98-1.84,1.48-2.77c-0.03-0.03-0.08-0.08-0.13-0.1
		c-2.39-1.02-3.48-2.87-3.45-5.43c0.01-1.42,0-2.84,0-4.25c0-5.43,0.01-10.87,0-16.3c-0.01-3.07,2.21-5.39,4.92-5.51
		C43.78,9.57,45.39,9.56,47,9.6c1.21,0.03,2.14,0.65,2.65,1.75c0.22,0.47,0.47,0.55,0.93,0.49c6.21-0.81,12.4,2.95,14.51,8.86
		c0.41,1.14,0.61,2.35,0.91,3.53c0,0.86,0,1.72,0,2.58c-0.04,0.1-0.09,0.19-0.1,0.3c-0.65,4.92-3.22,8.49-7.58,10.81
		c-0.12,0.06-0.23,0.16-0.37,0.25c0.5,0.39,0.98,0.71,1.42,1.09c3.03,2.66,4.51,6.03,4.5,10.06c0,5.35,0,10.69,0,16.04
		c0,0.21-0.04,0.42-0.05,0.64c-8.42,0-16.84,0-25.27,0c-1.5-0.29-2.82-0.94-3.97-1.97c-1.87-1.67-3.79-3.3-5.69-4.94
		c-0.12-0.1-0.26-0.19-0.39-0.29c-0.97,1.47-1.74,1.89-3.45,1.89c-0.37,0-0.73,0-1.1,0c-2.48,0-3.72-1.25-3.72-3.72
		c0-7.84,0-15.68,0-23.52c0-0.58-0.02-1.16,0.02-1.74c0.08-1.32,1-2.46,2.27-2.83c0.28-0.08,0.58-0.13,0.87-0.19
		c0-3.65,0.05-7.27-0.03-10.9c-0.03-1.45-1.08-2.62-2.44-2.78c-1.26-0.15-2.56-0.03-3.9-0.03c0,0.66,0,1.32,0,2.06
		c-2.52,0-4.97,0-7.62,0c0.22,0.45,0.31,0.8,0.53,1.05c1.94,2.29,3.91,4.57,5.86,6.86c0.14,0.16,0.34,0.46,0.28,0.58
		c-0.55,1.18-1.14,2.33-1.73,3.51c-2.73-1.17-5.38-2.3-8.1-3.46c-0.25,1.8-0.49,3.5-0.75,5.3c1.07,0,2.03,0,3.01,0
		C8.51,42.64,8.51,54.32,8.51,66z M40.44,53.65c0.07,0.04,0.13,0.07,0.2,0.11c0.15-0.18,0.28-0.37,0.45-0.54
		c3.29-3.3,6.59-6.6,9.89-9.89c0.3-0.3,0.62-0.59,0.96-0.86c2.46-1.91,6.34-0.76,7.35,2.19c0.7,2.06,0.19,3.83-1.33,5.35
		c-4.42,4.42-8.84,8.84-13.26,13.26c-0.16,0.16-0.31,0.32-0.52,0.54c5.93,0,11.73,0,17.57,0c0-0.25,0-0.44,0-0.63
		c0-4.62,0-9.24,0-13.86c0-3.41-1.22-6.3-3.85-8.5c-1.24-1.04-2.54-2.11-4.38-1.51c-0.08,0.03-0.17,0.01-0.26,0.01
		c-1.11,0-2.22,0-3.38,0c-0.61,1.6-1.87,2.29-3.64,2.2c-0.77-0.04-1.55-0.03-2.32,0.01c-0.22,0.01-0.5,0.13-0.65,0.29
		c-1.17,1.26-1.99,2.73-2.43,4.4C40.17,48.68,40.6,51.17,40.44,53.65z M39.43,33c0,1.19-0.05,2.33,0.01,3.45
		c0.08,1.55,1.24,2.76,2.79,2.87c1.32,0.1,2.66,0.06,3.99,0.07c1.42,0.01,1.7-0.28,1.7-1.7c0-8.1,0-16.19,0-24.29
		c0-0.19,0.01-0.39-0.01-0.58c-0.08-0.73-0.45-1.09-1.17-1.1c-1.44-0.01-2.88-0.03-4.32,0.01c-1.4,0.04-2.7,1.02-2.89,2.4
		c-0.17,1.28-0.04,2.59-0.04,3.95c0.96,0,1.92-0.02,2.89,0c2.11,0.05,3.38,1.36,3.39,3.47c0.01,1.01,0,2.02,0,3.03
		c0,0.66,0,1.32,0,1.97c-0.74,0-1.4,0-2.11,0c0-0.28,0-0.51,0-0.74c0-1.42,0.01-2.83,0-4.25c-0.01-0.78-0.3-1.26-0.89-1.29
		c-1.11-0.06-2.22-0.02-3.32-0.02c0,3.56,0,7.05,0,10.58c1.11,0,2.18,0.02,3.25-0.01c0.58-0.02,0.87-0.42,0.94-0.96
		c0.04-0.35,0.04-0.71,0.06-1.09c0.7,0,1.36,0,2.01,0c0.39,2.58-1,4.22-3.54,4.22C41.26,33,40.37,33,39.43,33z M40.82,59.36
		c-2.07-1.77-4.07-3.49-6.08-5.21c-2.59-2.22-5.17-4.46-7.78-6.66c-1.21-1.02-3.06-0.85-4,0.3c-0.96,1.16-0.74,2.7,0.53,3.81
		c4.23,3.67,8.47,7.35,12.71,11.01c2.07,1.79,4.44,1.69,6.39-0.24c1.45-1.44,2.89-2.88,4.33-4.33c0.88-0.88,1.76-1.76,2.58-2.58
		c-1.28-1.29-2.53-2.54-3.73-3.75c-1.6,1.59-3.24,3.22-4.9,4.87c0.42,0.37,0.87,0.76,1.33,1.17C41.72,58.3,41.29,58.8,40.82,59.36z
		 M50.05,18.09c0.83,0,1.6,0.02,2.37-0.01c0.4-0.02,0.57,0.14,0.68,0.5c0.23,0.76,0.52,1.5,0.74,2.26c0.11,0.37,0.29,0.56,0.66,0.68
		c1.73,0.54,2.89,2.06,2.98,3.87c0.08,1.7-0.94,3.37-2.56,4.04c-0.51,0.21-0.54,0.44-0.42,0.91c0.58,2.27,2.16,3.64,4.14,4.65
		c0.13,0.07,0.41-0.01,0.55-0.12c3.49-2.74,5.08-6.34,4.58-10.73c-0.59-5.06-4.16-8.89-9.13-10.03c-1.51-0.35-3.05-0.39-4.58-0.03
		C50.05,15.42,50.05,16.7,50.05,18.09z M4.39,10.63C4.03,7.78,3.67,4.98,3.32,2.17C3.07,2.15,2.9,2.13,2.73,2.14
		c-0.18,0-0.37,0.03-0.55,0.05c0,9.58,0,19.1,0,28.64c0.41,0,0.76,0,1.15,0c0.36-2.47,0.71-4.91,1.06-7.32
		c1.42-0.2,2.16-0.1,3.36,0.41c1.85,0.79,3.7,1.58,5.53,2.37c0.39-0.39,0.29-0.67-0.01-1.02c-1.44-1.65-2.77-3.4-4.31-4.96
		c-1.2-1.21-1.77-2.51-1.49-4.18c0.06-0.34,0.15-0.72,0.36-0.97c1.8-2.14,3.62-4.26,5.44-6.37c0.3-0.34,0.44-0.63-0.03-0.99
		c-1.79,0.77-3.63,1.48-5.4,2.34C6.74,10.68,5.63,10.69,4.39,10.63z M6.36,33.03c-1.41,0-2.78,0-4.17,0c0,10.28,0,20.52,0,30.79
		c1.41,0,2.77,0,4.17,0C6.36,53.56,6.36,43.33,6.36,33.03z M50.07,20.26c0,5.6,0,11.17,0,16.77c2.27,0.45,4.41,0.2,6.62-0.7
		c-1.58-0.94-2.76-2.11-3.56-3.66c-0.8-1.55-1.07-3.19-0.92-4.99c0.37,0,0.71,0.02,1.05,0c1.24-0.1,2.07-0.96,2.07-2.12
		c0-1.21-0.89-2.12-2.18-2.11c-0.56,0.01-0.79-0.18-0.93-0.7c-0.23-0.84-0.54-1.66-0.82-2.49C50.94,20.26,50.52,20.26,50.07,20.26z
		 M51.22,53.87c0.19-0.24,0.36-0.49,0.57-0.7c1.59-1.6,3.2-3.18,4.78-4.79c1.29-1.31,1.2-3.12-0.16-4.17
		c-1.1-0.85-2.57-0.72-3.67,0.37c-1.74,1.72-3.47,3.46-5.2,5.19c-0.08,0.08-0.14,0.19-0.18,0.24C48.63,51.28,49.86,52.5,51.22,53.87
		z M22.41,35.17c0,3.42,0,6.81,0,10.28c1.34-0.81,2.71-0.86,4.15-0.58c0-3.26,0-6.46,0-9.7C25.16,35.17,23.79,35.17,22.41,35.17z
		 M22.36,53.43c0,1.47-0.02,2.75,0.01,4.03c0.01,0.54,0.3,0.99,0.87,1.03c0.83,0.06,1.68,0.07,2.5-0.02
		c0.29-0.03,0.63-0.37,0.77-0.66c0.11-0.22,0.06-0.7-0.11-0.86C25.12,55.79,23.79,54.68,22.36,53.43z M22.38,32.95
		c1.44,0,2.82,0,4.21,0c0-0.37,0.01-0.69,0-1.01c-0.04-0.63-0.38-1.01-1-1.04c-0.75-0.04-1.5-0.03-2.24,0.01
		c-0.56,0.03-0.9,0.38-0.96,0.94C22.35,32.2,22.38,32.56,22.38,32.95z M14.85,12.77c-0.51,0-1-0.01-1.49,0
		c-0.25,0.01-0.6-0.05-0.73,0.09c-0.6,0.61-1.13,1.28-1.79,2.05c0.9,0,1.6,0,2.3,0C15.12,14.91,15.12,14.91,14.85,12.77z"/>
	<path d="M41.55,15.92c0-0.71,0-1.37,0-2.06c0.69,0,1.34,0,2.05,0c0,0.69,0,1.36,0,2.06C42.91,15.92,42.22,15.92,41.55,15.92z"/>
</g>
</svg>
